<svg width="391" height="179" viewBox="0 0 391 179" fill="none" xmlns="http://www.w3.org/2000/svg">
<g clip-path="url(#clip0_463_12939)">
<path d="M390.409 0.95459H0.408691V178.227H390.409V0.95459Z" fill="#F2F7FC"/>
<mask id="mask0_463_12939" style="mask-type:luminance" maskUnits="userSpaceOnUse" x="0" y="0" width="391" height="179">
<path d="M390.409 0.95459H0.408691V178.227H390.409V0.95459Z" fill="white"/>
</mask>
<g mask="url(#mask0_463_12939)">
<path d="M390.409 0.95459H0.408691V178.227H390.409V0.95459Z" fill="#F2F7FC"/>
<g opacity="0.2">
<path d="M390.409 118.965H0.914551V178.227H390.409V118.965Z" fill="#005BAC"/>
</g>
<mask id="mask1_463_12939" style="mask-type:luminance" maskUnits="userSpaceOnUse" x="-199" y="-52" width="589" height="193">
<path d="M389.958 -51.8762H-198.812V140.109H389.958V-51.8762Z" fill="white"/>
</mask>
<g mask="url(#mask1_463_12939)">
<path d="M234.481 118.055H197.918V59.4226H234.481V118.055ZM199.006 116.968H233.395V60.5099H199.006V116.968Z" fill="white"/>
<path d="M141.204 45.6853H105.729V117.511H141.204V45.6853Z" fill="#CEE4F2"/>
<path d="M141.747 118.055H105.186V45.1416H141.749L141.747 118.055ZM106.273 116.968H140.661V46.2289H106.273V116.968Z" fill="white"/>
<path d="M357.272 54.6824H338.37V41.3408H357.272V54.6824ZM339.456 53.5951H356.183V42.4281H339.456V53.5951Z" fill="white"/>
<path d="M118.417 65.3401H82.9424V117.783H118.417V65.3401Z" fill="#F2F7FC"/>
<path d="M118.961 117.783H117.873V65.8837H83.4872V80.2251H82.3999V64.7976H118.961V117.783Z" fill="white"/>
<path d="M186.529 54.4851H151.054V117.784H186.529V54.4851Z" fill="#F2F7FC"/>
<path d="M187.072 79.6684H185.985V55.0287H151.598V72.451H150.51V53.9414H187.072V79.6684Z" fill="white"/>
<path d="M100.68 82.3086H65.2056V117.783H100.68V82.3086Z" fill="#CEE4F2"/>
<path d="M101.223 118.327H64.6621V81.7649H101.224L101.223 118.327ZM65.7494 117.241H100.137V82.8522H65.7494V117.241Z" fill="white"/>
<path d="M282.186 65.3401H246.711V117.783H282.186V65.3401Z" fill="#F2F7FC"/>
<path d="M282.73 117.783H281.642V65.8837H247.256V72.769H246.169V64.7976H282.73V117.783Z" fill="white"/>
<path d="M277.292 70.436H258.397V71.5233H277.292V70.436Z" fill="white"/>
<path d="M277.292 74.2698H258.397V75.3571H277.292V74.2698Z" fill="white"/>
<path d="M277.792 65.8837H251.108V61.3633H277.792V65.8837ZM252.194 64.7976H276.704V62.4517H252.194V64.7976Z" fill="white"/>
<path d="M254.041 74.8135H218.566V117.783H254.041V74.8135Z" fill="#F2F7FC"/>
<path d="M254.586 118.327H218.023V74.2698H254.586V118.327ZM219.11 117.241H253.499V75.3571H219.11V117.241Z" fill="white"/>
<path d="M408.727 118.327H372.164V74.2698H408.727V118.327ZM373.251 117.241H407.64V75.3571H373.251V117.241Z" fill="white"/>
<path d="M324.7 118.327H288.139V53.6694H324.7V118.327ZM289.225 117.241H323.613V54.7567H289.225V117.241Z" fill="white"/>
<path d="M234.844 97.8435H221.729V81.2058H234.844V97.8435ZM222.816 96.7562H233.756V82.2931H222.816V96.7562Z" fill="white"/>
<path d="M250.879 97.8435H237.765V81.2058H250.879V97.8435ZM238.852 96.7562H249.791V82.2931H238.852V96.7562Z" fill="white"/>
<path d="M160.11 74.8135H124.636V117.783H160.11V74.8135Z" fill="#F2F7FC"/>
<path d="M160.654 118.327H124.091V74.2698H160.654V118.327ZM125.179 117.241H159.568V75.3571H125.179V117.241Z" fill="white"/>
<path d="M77.3559 93.8076H70.7129V87.1646H77.3559V93.8076ZM71.8002 92.7203H76.2686V88.2518H71.8002V92.7203Z" fill="white"/>
<path d="M86.2646 93.8076H79.6216V87.1646H86.2646V93.8076ZM80.7089 92.7203H85.1773V88.2518H80.7089V92.7203Z" fill="white"/>
<path d="M95.1718 93.8076H88.5288V87.1646H95.1718V93.8076ZM89.6161 92.7203H94.0845V88.2518H89.6161V92.7203Z" fill="white"/>
<path d="M366.101 118.327H329.538V53.6543H366.101V118.327ZM330.627 117.241H365.015V54.7416H330.627V117.241Z" fill="white"/>
<path d="M342.234 94.8194H335.591V53.6543H342.234V94.8194ZM336.679 93.7321H341.147V54.7416H336.679V93.7321Z" fill="white"/>
<path d="M351.142 94.8194H344.499V53.6543H351.142V94.8194ZM345.586 93.7321H350.055V54.7416H345.586V93.7321Z" fill="white"/>
<path d="M360.049 94.8194H353.406V53.6543H360.049V94.8194ZM354.494 93.7321H358.962V54.7416H354.494V93.7321Z" fill="white"/>
<path d="M212.286 82.3086H176.812V117.783H212.286V82.3086Z" fill="#CEE4F2"/>
<path d="M212.83 118.327H176.268V81.7649H212.829L212.83 118.327ZM177.355 117.241H211.743V82.8522H177.355V117.241Z" fill="white"/>
<path d="M214.573 97.301H174.525V100.751H214.573V97.301Z" fill="#CEE4F2"/>
<path d="M215.117 101.295H173.98V96.7563H215.117V101.295ZM175.068 100.207H214.031V97.8436H175.068V100.207Z" fill="white"/>
<path d="M254.042 96.7563H218.566V97.8436H254.042V96.7563Z" fill="white"/>
<path d="M197.872 93.5607H191.229V86.9165H197.872V93.5607ZM192.315 92.4734H196.783V88.0038H192.315V92.4734Z" fill="white"/>
<path d="M206.779 93.5607H200.136V86.9165H206.779V93.5607ZM201.222 92.4734H205.691V88.0038H201.222V92.4734Z" fill="white"/>
<path d="M113.523 70.436H94.6279V71.5233H113.523V70.436Z" fill="white"/>
<path d="M113.523 74.2698H94.6279V75.3571H113.523V74.2698Z" fill="white"/>
<path d="M113.478 61.9067H87.8813V65.3399H113.478V61.9067Z" fill="#F2F7FC"/>
<path d="M114.022 65.8837H87.3374V61.3633H114.022V65.8837ZM88.4247 64.7976H112.934V62.4517H88.4247C88.4247 62.4506 88.4247 64.7976 88.4247 64.7976Z" fill="white"/>
<path d="M160.654 86.3209H124.091V81.2048H160.654V86.3209ZM125.179 85.2337H159.568V82.2921H125.179V85.2337Z" fill="white"/>
<path d="M160.654 93.8075H124.091V88.6926H160.654V93.8075ZM125.179 92.7203H159.568V89.7799H125.179V92.7203Z" fill="white"/>
<path d="M160.654 101.295H124.091V96.1785H160.654V101.295ZM125.179 100.207H159.568V97.2657H125.179V100.207Z" fill="white"/>
<path d="M240.183 111.763C239.883 111.763 239.64 111.519 239.64 111.219V109.057C239.64 108.756 239.883 108.513 240.183 108.513C240.483 108.513 240.727 108.756 240.727 109.057V111.219C240.727 111.519 240.483 111.763 240.183 111.763Z" fill="white"/>
<path d="M182.133 54.7568H155.449V48.1599H182.133V54.7568ZM156.536 53.6695H181.046V49.2472H156.536V53.6695Z" fill="white"/>
<path d="M227.32 115.492H221.909V103.393H227.32V115.492ZM222.995 114.404H226.232V104.481H222.995V114.404Z" fill="white"/>
<path d="M233.997 115.492H228.586V103.393H233.997V115.492ZM229.673 114.404H232.91V104.481H229.673V114.404Z" fill="white"/>
<path d="M254.042 90.7065H219.111V91.7938H254.042V90.7065Z" fill="white"/>
<path d="M242.861 91.2502H241.774V97.3H242.861V91.2502Z" fill="white"/>
<path d="M246.871 91.2502H245.784V97.3H246.871V91.2502Z" fill="white"/>
<path d="M230.835 91.2502H229.748V97.3H230.835V91.2502Z" fill="white"/>
<path d="M226.827 91.2502H225.739V97.3H226.827V91.2502Z" fill="white"/>
<path d="M53.1083 54.6824H34.2051V41.3408H53.1083V54.6824ZM35.2924 53.5951H52.021V42.4281H35.2924V53.5951Z" fill="white"/>
<path d="M19.9942 54.2131H-15.4805V117.783H19.9942V54.2131Z" fill="#F2F7FC"/>
<path d="M20.5377 118.327H-16.0254V53.6694H20.5377V118.327ZM-14.9381 117.241H19.4504V54.7567H-14.9381V117.241Z" fill="white"/>
<path d="M61.9377 118.327H25.377V53.6543H61.9389L61.9377 118.327ZM26.463 117.241H60.8504V54.7416H26.463V117.241Z" fill="white"/>
<path d="M38.0712 94.8194H31.4282V53.6543H38.0712V94.8194ZM32.5155 93.7321H36.984V54.7416H32.5155V93.7321Z" fill="white"/>
<path d="M46.9784 94.8194H40.3354V53.6543H46.9784V94.8194ZM41.4227 93.7321H45.8912V54.7416H41.4227V93.7321Z" fill="white"/>
<path d="M19.9939 67.8845H-15.4819V68.9718H19.9939V67.8845Z" fill="white"/>
<path d="M19.9939 56.8665H-15.4819V57.9537H19.9939V56.8665Z" fill="white"/>
<path d="M19.9939 81.2058H-15.4819V82.2931H19.9939V81.2058Z" fill="white"/>
<path d="M19.9939 94.5273H-15.4819V95.6146H19.9939V94.5273Z" fill="white"/>
<path d="M10.5359 118.327H-6.22461V102.957H10.5359V118.327ZM-5.13734 117.241H9.44866V104.043H-5.13734V117.241Z" fill="white"/>
<path d="M2.69909 103.666H1.61182V117.783H2.69909V103.666Z" fill="white"/>
<path d="M6.69823 104.88L5.9292 105.649L7.87658 107.597L8.64561 106.829L6.69823 104.88Z" fill="white"/>
<path d="M-1.27834 104.881L-2.04736 105.649L-0.0999813 107.598L0.669047 106.829L-1.27834 104.881Z" fill="white"/>
<path d="M53.1083 54.6824H34.2051V45.1416H53.1083V54.6824ZM35.2924 53.5951H52.021V46.2289H35.2924V53.5951Z" fill="white"/>
<path d="M69.5202 109.508C69.5202 111.892 67.5879 113.824 65.2042 113.824C62.8205 113.824 60.8882 111.892 60.8882 109.508C60.8882 107.124 62.8205 102.076 65.2042 102.076C67.5879 102.076 69.5202 107.124 69.5202 109.508Z" fill="#CEE4F2"/>
<path d="M221.685 109.508C221.685 111.892 219.753 113.824 217.369 113.824C214.986 113.824 213.053 111.892 213.053 109.508C213.053 107.124 214.986 102.076 217.369 102.076C219.753 102.076 221.685 107.124 221.685 109.508Z" fill="#CEE4F2"/>
<path d="M292.603 109.508C292.603 111.892 290.67 113.824 288.287 113.824C285.903 113.824 283.971 111.892 283.971 109.508C283.971 107.124 285.903 102.076 288.287 102.076C290.67 102.076 292.603 107.124 292.603 109.508Z" fill="#F2F7FC"/>
<path d="M324.156 67.8845H288.682V68.9718H324.156V67.8845Z" fill="white"/>
<path d="M324.156 56.8665H288.682V57.9537H324.156V56.8665Z" fill="white"/>
<path d="M324.156 81.2058H288.682V82.2931H324.156V81.2058Z" fill="white"/>
<path d="M324.156 94.5273H288.682V95.6146H324.156V94.5273Z" fill="white"/>
<path d="M314.698 118.327H297.938V102.957H314.698V118.327ZM299.025 117.241H313.611V104.043H299.025V117.241Z" fill="white"/>
<path d="M306.861 103.666H305.774V117.783H306.861V103.666Z" fill="white"/>
<path d="M310.855 104.879L310.086 105.648L312.034 107.596L312.803 106.828L310.855 104.879Z" fill="white"/>
<path d="M302.881 104.883L302.112 105.652L304.06 107.6L304.829 106.831L302.881 104.883Z" fill="white"/>
<path d="M357.272 54.6824H338.37V45.1416H357.272V54.6824ZM339.456 53.5951H356.183V46.2289H339.456V53.5951Z" fill="white"/>
<path d="M408.182 74.8135H372.708V97.3011H408.182V74.8135Z" fill="#F2F7FC"/>
<path d="M408.727 97.8435H372.164V74.2698H408.727V97.8435ZM373.251 96.7562H407.64V75.3571H373.251V96.7562Z" fill="white"/>
<path d="M408.183 102.274H372.708V103.361H408.183V102.274Z" fill="white"/>
<path d="M378.5 102.818H377.413V117.684H378.5V102.818Z" fill="white"/>
<path d="M386.068 102.818H384.981V117.684H386.068V102.818Z" fill="white"/>
<path d="M572.274 117.241H-73.6982V118.328H572.274V117.241Z" fill="white"/>
<path d="M361.162 54.6824H334.478V49.3489H361.162V54.6824ZM335.564 53.5951H360.074V50.4361H335.564V53.5951Z" fill="white"/>
<path d="M318.975 95.6242H308.198V88.9812H318.975V95.6242ZM309.285 94.5381H317.888V90.0697H309.285V94.5381Z" fill="white"/>
<path d="M304.64 95.6242H293.863V88.9812H304.64V95.6242ZM294.95 94.5381H303.553V90.0697H294.95V94.5381Z" fill="white"/>
<path d="M318.975 82.2931H308.198V75.6501H318.975V82.2931ZM309.285 81.2059H317.888V76.7374H309.285V81.2059Z" fill="white"/>
<path d="M304.64 82.2931H293.863V75.6501H304.64V82.2931ZM294.95 81.2059H303.553V76.7374H294.95V81.2059Z" fill="white"/>
<path d="M318.975 68.9716H308.198V62.3286H318.975V68.9716ZM309.285 67.8843H317.888V63.4159H309.285V67.8843Z" fill="white"/>
<path d="M304.64 68.9716H293.863V62.3286H304.64V68.9716ZM294.95 67.8843H303.553V63.4159H294.95V67.8843Z" fill="white"/>
<path d="M366.489 114.368C363.81 114.368 361.63 112.187 361.63 109.508C361.63 107.208 363.567 101.532 366.489 101.532C369.41 101.532 371.348 107.208 371.348 109.508C371.35 112.187 369.169 114.368 366.489 114.368ZM366.489 102.618C364.656 102.618 362.718 107.098 362.718 109.507C362.718 111.587 364.41 113.279 366.489 113.279C368.568 113.279 370.261 111.586 370.261 109.507C370.262 107.098 368.323 102.618 366.489 102.618Z" fill="white"/>
<path d="M368.202 118.228H364.777V111.379H368.202V118.228ZM365.863 117.141H367.115V112.467H365.863V117.141Z" fill="white"/>
<path d="M288.287 114.368C285.608 114.368 283.428 112.187 283.428 109.508C283.428 107.208 285.365 101.532 288.287 101.532C291.208 101.532 293.146 107.208 293.146 109.508C293.148 112.187 290.967 114.368 288.287 114.368ZM288.287 102.618C286.454 102.618 284.515 107.098 284.515 109.507C284.515 111.587 286.208 113.279 288.287 113.279C290.366 113.279 292.059 111.586 292.059 109.507C292.06 107.098 290.121 102.618 288.287 102.618Z" fill="white"/>
<path d="M290.001 118.228H286.576V111.379H290.001V118.228ZM287.662 117.141H288.913V112.467H287.662V117.141Z" fill="white"/>
<path d="M217.369 114.368C214.69 114.368 212.511 112.187 212.511 109.508C212.511 107.208 214.448 101.532 217.369 101.532C220.291 101.532 222.229 107.208 222.229 109.508C222.229 112.187 220.048 114.368 217.369 114.368ZM217.369 102.618C215.536 102.618 213.598 107.098 213.598 109.507C213.598 111.587 215.29 113.279 217.369 113.279C219.448 113.279 221.142 111.586 221.142 109.507C221.142 107.098 219.202 102.618 217.369 102.618Z" fill="white"/>
<path d="M219.082 118.228H215.657V111.379H219.082V118.228ZM216.743 117.141H217.994V112.467H216.743V117.141Z" fill="white"/>
<path d="M124.636 114.368C121.957 114.368 119.777 112.187 119.777 109.508C119.777 107.208 121.714 101.532 124.636 101.532C127.557 101.532 129.495 107.208 129.495 109.508C129.495 112.187 127.315 114.368 124.636 114.368ZM124.636 102.618C122.803 102.618 120.865 107.098 120.865 109.507C120.865 111.587 122.557 113.279 124.636 113.279C126.715 113.279 128.408 111.586 128.408 109.507C128.408 107.098 126.47 102.618 124.636 102.618Z" fill="white"/>
<path d="M126.348 118.228H122.923V111.379H126.348V118.228ZM124.011 117.141H125.262V112.467H124.011V117.141Z" fill="white"/>
<path d="M65.2056 114.368C62.5264 114.368 60.3472 112.187 60.3472 109.508C60.3472 107.208 62.2842 101.532 65.2056 101.532C68.1271 101.532 70.0641 107.208 70.0641 109.508C70.0641 112.187 67.8836 114.368 65.2056 114.368ZM65.2056 102.618C63.3726 102.618 61.4344 107.098 61.4344 109.507C61.4344 111.587 63.1268 113.279 65.2056 113.279C67.2844 113.279 68.9768 111.586 68.9768 109.507C68.9768 107.098 67.0386 102.618 65.2056 102.618Z" fill="white"/>
<path d="M66.9181 118.228H63.4932V111.379H66.9181V118.228ZM64.5804 117.141H65.832V112.467H64.5804V117.141Z" fill="white"/>
<path d="M56.9992 54.6824H30.3149V49.3489H56.9992V54.6824ZM31.4022 53.5951H55.9119V50.4361H31.4022V53.5951Z" fill="white"/>
<path d="M14.8117 95.6242H4.03467V88.9812H14.8117V95.6242ZM5.12194 94.5381H13.7244V90.0697H5.12194V94.5381Z" fill="white"/>
<path d="M14.8117 82.2931H4.03467V75.6501H14.8117V82.2931ZM5.12194 81.2059H13.7244V76.7374H5.12194V81.2059Z" fill="white"/>
<path d="M14.8117 68.9716H4.03467V62.3286H14.8117V68.9716ZM5.12194 67.8843H13.7244V63.4159H5.12194V67.8843Z" fill="white"/>
<path d="M179.7 72.7654H174.585V53.9414H179.7V72.7654ZM175.671 71.6781H178.611V55.0287H175.671V71.6781Z" fill="white"/>
<path d="M162.999 72.7654H157.884V53.9414H162.999V72.7654ZM158.971 71.6781H161.911V55.0287H158.971V71.6781Z" fill="white"/>
<path d="M171.348 90.5033H166.233V53.9414H171.348V90.5033ZM167.321 89.416H170.261V55.0287H167.321V89.416Z" fill="white"/>
<path d="M249.152 118.228H237.479V103.123H249.152V118.228ZM238.567 117.142H248.065V104.21H238.567V117.142Z" fill="white"/>
<path d="M206.779 118.228H195.106V103.123H206.779V118.228ZM196.194 117.142H205.692V104.21H196.194V117.142Z" fill="white"/>
</g>
<path d="M446.237 218.923L336.772 114.211H445.833L446.237 218.923Z" fill="white"/>
<path d="M446.237 219.281C446.146 219.281 446.057 219.247 445.989 219.182L336.524 114.469C336.418 114.368 336.385 114.212 336.439 114.076C336.494 113.94 336.626 113.851 336.772 113.851H445.833C446.03 113.851 446.191 114.012 446.192 114.209L446.596 218.922C446.596 219.066 446.511 219.195 446.379 219.253C446.333 219.272 446.284 219.281 446.237 219.281ZM337.667 114.57L445.874 218.081L445.475 114.57H337.667Z" fill="#4F4F4F"/>
<path d="M336.088 113.34H340.91L450.782 217.338L444.507 220.962L336.1 118.007V113.34" fill="white"/>
<path d="M444.507 221.266C444.43 221.266 444.355 221.237 444.297 221.182L335.892 118.225C335.831 118.168 335.797 118.089 335.797 118.005V113.421C335.79 113.395 335.785 113.367 335.785 113.338C335.785 113.171 335.921 113.035 336.089 113.035H340.911C340.988 113.035 341.063 113.064 341.119 113.117L450.99 217.117C451.061 217.184 451.094 217.278 451.083 217.374C451.072 217.468 451.016 217.552 450.933 217.6L444.658 221.222C444.611 221.251 444.559 221.266 444.507 221.266ZM336.403 117.877L444.551 220.587L450.279 217.28L340.789 113.643H336.403V117.877Z" fill="#4F4F4F"/>
<path d="M445.938 218.815L452.213 215.192L342.342 113.34H336.088L445.938 218.815Z" fill="white"/>
<path d="M445.938 219.119C445.861 219.119 445.785 219.091 445.727 219.034L335.878 113.558C335.79 113.473 335.76 113.341 335.808 113.227C335.855 113.114 335.966 113.037 336.089 113.037H342.342C342.419 113.037 342.492 113.065 342.547 113.117L452.42 214.97C452.491 215.036 452.526 215.131 452.516 215.227C452.505 215.322 452.448 215.407 452.365 215.455L446.09 219.078C446.042 219.105 445.99 219.119 445.938 219.119ZM336.84 113.643L445.984 218.44L451.707 215.136L342.222 113.643H336.84Z" fill="#4F4F4F"/>
<path d="M-55.4189 218.923L54.047 114.211H-55.0148L-55.4189 218.923Z" fill="white"/>
<path d="M-55.419 219.281C-55.4663 219.281 -55.5148 219.272 -55.5609 219.253C-55.692 219.195 -55.7783 219.066 -55.7783 218.922L-55.3741 114.209C-55.373 114.012 -55.2122 113.851 -55.0149 113.851H54.0457C54.1922 113.851 54.3234 113.94 54.379 114.076C54.4333 114.212 54.4002 114.368 54.2939 114.469L-55.1709 219.182C-55.2382 219.247 -55.328 219.281 -55.419 219.281ZM-54.6568 114.57L-55.0562 218.081L53.1522 114.57H-54.6568Z" fill="#4F4F4F"/>
<path d="M54.7299 113.34H49.9081L-59.9644 217.338L-53.6889 220.962L54.7181 118.007V113.34" fill="white"/>
<path d="M-53.6891 221.266C-53.7411 221.266 -53.7931 221.251 -53.8404 221.224L-60.117 217.602C-60.1998 217.555 -60.2553 217.471 -60.2671 217.376C-60.2778 217.281 -60.2435 217.186 -60.1738 217.12L49.6987 113.12C49.7542 113.067 49.8287 113.037 49.9067 113.037H54.7285C54.8963 113.037 55.0322 113.173 55.0322 113.341C55.0322 113.369 55.0275 113.398 55.0204 113.424V118.008C55.0204 118.091 54.9861 118.171 54.9259 118.228L-53.4811 221.183C-53.5379 221.237 -53.6123 221.266 -53.6891 221.266ZM-59.4623 217.281L-53.734 220.587L54.4141 117.877V113.643H50.0284L-59.4623 217.281Z" fill="#4F4F4F"/>
<path d="M-55.1201 218.815L-61.3955 215.192L48.477 113.34H54.73L-55.1201 218.815Z" fill="white"/>
<path d="M-55.1203 219.119C-55.1723 219.119 -55.2243 219.105 -55.2716 219.078L-61.5482 215.455C-61.631 215.407 -61.6877 215.322 -61.6983 215.227C-61.709 215.131 -61.6735 215.036 -61.6026 214.97L48.2699 113.117C48.3254 113.065 48.3987 113.037 48.4755 113.037H54.7285C54.8514 113.037 54.9637 113.113 55.0098 113.227C55.0558 113.342 55.0275 113.473 54.9377 113.558L-54.9112 219.034C-54.9679 219.09 -55.0435 219.118 -55.1203 219.119ZM-60.89 215.136L-55.1664 218.44L53.9768 113.643H48.5948L-60.89 215.136Z" fill="#4F4F4F"/>
<path d="M53.8469 12.1133H49.772V144.158H53.8469V12.1133Z" fill="white"/>
<path d="M53.8473 144.517H49.7724C49.5738 144.517 49.4131 144.356 49.4131 144.158V12.1122C49.4131 11.9148 49.5738 11.7529 49.7724 11.7529H53.8473C54.0458 11.7529 54.2065 11.9137 54.2065 12.1122V144.157C54.2065 144.356 54.0458 144.517 53.8473 144.517ZM50.1316 143.799H53.4892V12.4715H50.1316V143.799Z" fill="#4F4F4F"/>
<path d="M55.6468 112.614H47.8491V145.206H55.6468V112.614Z" fill="white"/>
<path d="M55.6483 145.565H47.8495C47.651 145.565 47.4902 145.405 47.4902 145.206V112.614C47.4902 112.415 47.651 112.255 47.8495 112.255H55.6483C55.8469 112.255 56.0076 112.415 56.0076 112.614V145.206C56.0064 145.406 55.8469 145.565 55.6483 145.565ZM48.2088 144.848H55.2891V112.973H48.2088V144.848Z" fill="#4F4F4F"/>
<path d="M96.388 32.8743H49.6494V11.9656H92.4561C99.3118 11.9656 104.877 17.5308 104.877 24.3865C104.876 29.0712 101.073 32.8743 96.388 32.8743Z" fill="white"/>
<path d="M96.389 33.2323H49.6493C49.4508 33.2323 49.29 33.0716 49.29 32.873V11.9655C49.29 11.7681 49.4508 11.6062 49.6493 11.6062H92.4559C99.5031 11.6062 105.235 17.3392 105.235 24.3864C105.235 29.2649 101.265 33.2335 96.389 33.2323ZM50.0074 32.5149H96.3879C100.87 32.5149 104.516 28.869 104.516 24.3864C104.516 17.7351 99.106 12.3236 92.4548 12.3236H50.0074V32.5149Z" fill="#4F4F4F"/>
<g opacity="0.7">
<path d="M24.7092 210.624H-4.80078L42.2297 154.927H66.6673L24.7092 210.624Z" fill="#FCFCFC"/>
</g>
<g opacity="0.7">
<path d="M85.71 210.624H56.2012L89.3985 154.927H113.836L85.71 210.624Z" fill="#FCFCFC"/>
</g>
<g opacity="0.7">
<path d="M146.827 210.624H117.318L136.453 154.927H160.889L146.827 210.624Z" fill="#FCFCFC"/>
</g>
<g opacity="0.7">
<path d="M361.668 210.624H391.177L344.147 154.927H319.709L361.668 210.624Z" fill="#FCFCFC"/>
</g>
<g opacity="0.7">
<path d="M300.666 210.624H330.176L296.978 154.927H272.54L300.666 210.624Z" fill="#FCFCFC"/>
</g>
<g opacity="0.7">
<path d="M239.55 210.624H269.06L249.925 154.927H225.487L239.55 210.624Z" fill="#FCFCFC"/>
</g>
<g opacity="0.7">
<path d="M207.943 210.624H178.433L179.126 154.927H203.562L207.943 210.624Z" fill="#FCFCFC"/>
</g>
<path d="M341.024 85.2442V84.3767C341.024 82.8924 339.821 81.6905 338.338 81.6905H333.16C332.614 81.6905 332.12 81.8949 331.733 82.2223L326.061 69.8723C324.995 67.5512 323.484 65.6745 321.71 64.3756C319.931 63.0733 318.251 62.6017 317.032 62.4363V61.1067C317.032 60.6281 316.64 60.2357 316.161 60.2357H314.652C314.173 60.2357 313.781 60.6269 313.781 61.1067V62.1491C311.111 61.8785 308.354 61.661 305.495 61.5133L305.051 60.5135C303.713 60.2712 300.457 60.7132 299.131 60.7132L299.352 61.3171C298.441 61.3041 297.542 61.2805 296.614 61.2816L296.48 60.9295C293.767 60.4426 291.538 60.3114 290.229 60.2416C287.164 60.0797 284.301 60.2322 281.672 60.5773L282.18 61.9411C281.333 62.0156 280.483 62.0888 279.656 62.1751V60.9626C279.656 60.4839 279.265 60.0916 278.785 60.0916H277.276C276.797 60.0916 276.405 60.4839 276.405 60.9626V62.6868C273.169 63.7516 270.378 66.5041 268.796 70.3746C267.025 74.7095 265.254 79.0444 263.483 83.3781C263.076 82.8498 262.445 82.5035 261.727 82.5035H256.549C255.065 82.5035 253.863 83.7066 253.863 85.1898V86.0573C253.863 87.5416 255.066 88.7435 256.549 88.7435H261.155C258.956 90.3508 257.666 93.1588 256.745 96.215C256.429 97.2645 256.258 98.3777 256.258 99.53V115.748C256.258 116.384 256.349 116.997 256.509 117.581V128.643C256.509 130.634 258.123 132.249 260.115 132.249H266.488C268.48 132.249 270.094 130.634 270.094 128.643V121.18H326.658V128.643C326.658 130.634 328.272 132.249 330.264 132.249H336.637C338.629 132.249 340.243 130.634 340.243 128.643V117.419C340.288 117.238 340.326 117.054 340.357 116.867C340.403 116.675 340.436 116.507 340.453 116.398V100.421C340.453 98.9864 340.209 97.6095 339.76 96.3285C338.539 92.8468 337.303 89.7469 334.676 88.2909C334.59 88.2436 334.472 88.194 334.372 88.1455C334.399 88.1491 334.429 88.1515 334.456 88.155L334.353 87.9305H338.336C339.821 87.9305 341.023 86.7274 341.024 85.2442Z" fill="white"/>
<g opacity="0.2">
<path d="M256.511 110.45H270.096V128.644C270.096 130.634 268.481 132.25 266.491 132.25H260.117C258.127 132.25 256.511 130.634 256.511 128.644V110.45Z" fill="#636363"/>
<path d="M326.659 110.45H340.244V128.644C340.244 130.634 338.629 132.25 336.638 132.25H330.265C328.275 132.25 326.659 130.634 326.659 128.644V110.45Z" fill="#636363"/>
<path d="M277.277 60.0916H278.786C279.267 60.0916 279.657 60.4816 279.657 60.9626V63.4775C279.657 63.9585 279.267 64.3485 278.786 64.3485H277.277C276.796 64.3485 276.406 63.9585 276.406 63.4775V60.9626C276.406 60.4804 276.796 60.0916 277.277 60.0916Z" fill="white"/>
<path d="M278.785 64.6498H277.277C276.629 64.6498 276.103 64.1239 276.103 63.4763V60.9614C276.103 60.3138 276.629 59.7878 277.277 59.7878H278.785C279.432 59.7878 279.959 60.3138 279.959 60.9614V63.4763C279.959 64.1239 279.432 64.6498 278.785 64.6498ZM277.277 60.3941C276.963 60.3941 276.709 60.6482 276.709 60.9614V63.4763C276.709 63.7895 276.963 64.0436 277.277 64.0436H278.785C279.099 64.0436 279.352 63.7895 279.352 63.4763V60.9614C279.352 60.6482 279.098 60.3941 278.785 60.3941H277.277Z" fill="#4F4F4F"/>
<path d="M314.651 60.2358H316.16C316.641 60.2358 317.031 60.6258 317.031 61.1068V63.6218C317.031 64.1028 316.641 64.4928 316.16 64.4928H314.651C314.17 64.4928 313.78 64.1028 313.78 63.6218V61.1068C313.781 60.6258 314.171 60.2358 314.651 60.2358Z" fill="white"/>
<path d="M316.16 64.7951H314.651C314.003 64.7951 313.477 64.2692 313.477 63.6216V61.1067C313.477 60.4602 314.003 59.9331 314.651 59.9331H316.16C316.807 59.9331 317.333 60.459 317.333 61.1067V63.6216C317.335 64.2692 316.807 64.7951 316.16 64.7951ZM314.651 60.5394C314.337 60.5394 314.085 60.7935 314.085 61.1067V63.6216C314.085 63.9347 314.339 64.1888 314.651 64.1888H316.16C316.473 64.1888 316.726 63.9347 316.726 63.6216V61.1067C316.726 60.7935 316.472 60.5394 316.16 60.5394H314.651Z" fill="#4F4F4F"/>
<path d="M338.337 87.9304H330.935V83.9134C330.935 82.6867 331.931 81.6904 333.158 81.6904H338.336C339.819 81.6904 341.022 82.8947 341.022 84.3767V85.2442C341.024 86.7262 339.82 87.9304 338.337 87.9304Z" fill="white"/>
<path d="M338.337 88.2342H330.936C330.768 88.2342 330.632 88.0983 330.632 87.9316V83.9134C330.632 82.5201 331.766 81.3867 333.159 81.3867H338.337C339.985 81.3867 341.327 82.7281 341.327 84.3767V85.2442C341.327 86.8928 339.985 88.2342 338.337 88.2342ZM331.24 87.6279H338.337C339.651 87.6279 340.72 86.5584 340.72 85.2442V84.3767C340.72 83.0625 339.652 81.993 338.337 81.993H333.159C332.1 81.993 331.24 82.8545 331.24 83.9134V87.6279Z" fill="#4F4F4F"/>
<path d="M335.213 121.631H263.155C259.347 121.631 256.259 118.549 256.259 114.747V99.53C256.259 98.3777 256.429 97.2644 256.745 96.215C258.17 91.4877 260.463 87.3383 265.663 87.3383C275.493 86.2664 286.484 85.5633 298.458 85.5822C310.309 85.6023 321.193 86.3267 330.937 87.4116C332.739 87.4199 333.98 87.9044 334.676 88.2897C337.304 89.7457 338.539 92.8456 339.761 96.3272C340.21 97.6083 340.454 98.9852 340.454 100.42V116.397C340.368 116.933 340.025 118.622 338.533 120.016C337.227 121.235 335.777 121.543 335.213 121.631Z" fill="white"/>
<path d="M335.214 121.935H263.155C259.187 121.935 255.956 118.71 255.956 114.747V99.5299C255.956 98.3729 256.125 97.2289 256.457 96.1275C257.732 91.8942 259.931 87.0357 265.664 87.0357C276.33 85.8705 287.21 85.2795 297.979 85.2795C298.139 85.2795 298.299 85.2795 298.46 85.2807C309.276 85.2984 320.215 85.9154 330.973 87.1125C332.801 87.1196 334.08 87.6148 334.824 88.0273C337.518 89.5199 338.783 92.6245 340.048 96.2291C340.518 97.5752 340.759 98.9851 340.759 100.422V116.4C340.619 117.289 340.177 118.9 338.74 120.24C337.792 121.124 336.558 121.726 335.263 121.932C335.246 121.932 335.23 121.935 335.214 121.935ZM297.979 85.8846C287.232 85.8846 276.375 86.4744 265.697 87.6396C260.332 87.642 258.253 92.2712 257.037 96.3035C256.723 97.3471 256.564 98.4332 256.564 99.5299V114.747C256.564 118.375 259.521 121.327 263.156 121.327H335.191C335.878 121.214 337.18 120.865 338.326 119.795C339.629 118.578 340.032 117.113 340.157 116.35L340.152 100.42C340.152 99.0525 339.925 97.7087 339.476 96.4276C338.254 92.9425 337.039 89.9442 334.531 88.5544C333.848 88.175 332.67 87.7212 330.938 87.7141C320.171 86.5169 309.253 85.9024 298.461 85.8846C298.299 85.8858 298.137 85.8858 297.979 85.8846Z" fill="#4F4F4F"/>
<path d="M267.205 89.3097L265.61 91.7395C264.383 93.6079 264.739 95.955 266.479 97.4867L267.378 98.2773C271.526 101.928 277.193 103.982 283.104 103.977L313.628 103.956C320.047 103.951 326.145 101.523 330.329 97.3047C331.76 95.8629 332.074 93.8254 331.131 92.107L329.688 89.4799C329.267 89.0461 328.82 88.6065 328.342 88.1657C327.141 87.0571 325.952 86.1199 324.827 85.3281H273.54C272.06 85.8824 270.294 86.751 268.54 88.1397C268.052 88.5285 267.608 88.9209 267.205 89.3097Z" fill="white"/>
<path d="M283.085 104.282C277.148 104.282 271.35 102.177 267.179 98.5054L266.28 97.7148C264.431 96.0874 264.051 93.5619 265.358 91.574L266.953 89.1431C266.965 89.1241 266.981 89.1076 266.995 89.0911C267.425 88.6751 267.882 88.2756 268.353 87.9021C269.867 86.7026 271.576 85.7406 273.435 85.0433C273.468 85.0303 273.505 85.0244 273.541 85.0244H324.829C324.892 85.0244 324.952 85.0433 325.003 85.08C326.246 85.9533 327.439 86.9177 328.55 87.9423C329.023 88.3808 329.48 88.8263 329.908 89.2695C329.927 89.2896 329.942 89.3109 329.955 89.3345L331.398 91.9617C332.406 93.7994 332.072 95.9787 330.545 97.5174C326.301 101.797 320.135 104.253 313.631 104.259L283.105 104.281L283.085 104.282ZM267.44 89.5035L265.865 91.9061C264.729 93.6351 265.064 95.8369 266.68 97.2598L267.579 98.0504C271.642 101.624 277.293 103.675 283.085 103.675H283.105L313.631 103.652C319.976 103.649 325.984 101.257 330.116 97.0908C331.449 95.7482 331.743 93.849 330.867 92.2524L329.444 89.6619C329.032 89.2376 328.594 88.8086 328.14 88.3879C327.073 87.4022 325.926 86.4745 324.734 85.6307H273.596C271.818 86.3043 270.18 87.2285 268.73 88.3772C268.283 88.7318 267.848 89.11 267.44 89.5035Z" fill="#4F4F4F"/>
<path d="M334.457 88.1551C323.762 86.926 311.767 86.1011 298.677 86.0917C285.025 86.081 272.552 86.9579 261.489 88.2627C263.926 82.3004 266.361 76.3369 268.798 70.3747C270.858 65.3342 274.966 62.1776 279.442 62.1965C284.756 61.6398 290.467 61.2971 296.528 61.2841C303.41 61.2687 309.849 61.6788 315.779 62.3501C316.863 62.343 319.197 62.5392 321.708 64.3781C323.482 65.6769 324.994 67.5525 326.06 69.8747L334.457 88.1551Z" fill="white"/>
<path d="M261.489 88.5639C261.396 88.5639 261.306 88.5202 261.248 88.4445C261.183 88.3594 261.169 88.2448 261.209 88.1467L268.519 70.2587C270.629 65.0942 274.796 61.8914 279.401 61.8914H279.443C285.079 61.2994 290.838 60.9909 296.529 60.9791C302.927 60.9377 309.426 61.3242 315.815 62.0474H315.886C317.325 62.0474 319.547 62.4174 321.888 64.131C323.732 65.4794 325.268 67.4212 326.338 69.7458L334.733 88.0285C334.778 88.1278 334.767 88.2448 334.704 88.3323C334.639 88.4209 334.529 88.4658 334.424 88.4552C322.601 87.0961 310.574 86.4024 298.679 86.3929H298.442C286.15 86.3929 273.732 87.1221 261.527 88.5615C261.512 88.5639 261.5 88.5639 261.489 88.5639ZM279.436 62.4954C275.048 62.4954 271.094 65.5539 269.078 70.488L261.963 87.9009C274.027 86.4981 286.295 85.7878 298.44 85.7878H298.676C310.416 85.7973 322.283 86.4721 333.957 87.7934L325.785 69.9987C324.761 67.7674 323.289 65.9084 321.529 64.6203C319.313 62.9976 317.22 62.6514 315.839 62.6514H315.782C309.506 61.9423 303.166 61.5842 296.901 61.5842C296.777 61.5842 296.653 61.5842 296.53 61.5842C290.858 61.5972 285.121 61.9044 279.472 62.4954H279.436Z" fill="#4F4F4F"/>
<path d="M330.26 80.4095C331.144 82.2957 329.427 84.3319 327.147 84.105C318.308 83.2222 308.451 82.6467 297.733 82.662C287.022 82.6774 277.175 83.2801 268.346 84.1866C266.113 84.4158 264.4 82.4599 265.188 80.5844C266.581 77.2658 267.975 73.9473 269.368 70.6299C270.296 68.4223 271.931 66.8304 273.857 66.2537C279.905 64.4419 287.9 63.5768 296.702 63.4681C306.636 63.3452 314.748 64.4053 321.29 66.4097C323.091 66.9616 324.639 68.4081 325.582 70.4231C327.142 73.7511 328.701 77.0803 330.26 80.4095Z" fill="#E5EFFA"/>
<mask id="mask2_463_12939" style="mask-type:luminance" maskUnits="userSpaceOnUse" x="264" y="63" width="67" height="22">
<path d="M330.26 80.4095C331.144 82.2957 329.427 84.3319 327.147 84.105C318.308 83.2222 308.451 82.6467 297.733 82.662C287.022 82.6774 277.175 83.2801 268.346 84.1866C266.113 84.4158 264.4 82.4599 265.188 80.5844C266.581 77.2658 267.975 73.9473 269.368 70.6299C270.296 68.4223 271.931 66.8304 273.857 66.2537C279.905 64.4419 287.9 63.5768 296.702 63.4681C306.636 63.3452 314.748 64.4053 321.29 66.4097C323.091 66.9616 324.639 68.4081 325.582 70.4231C327.142 73.7511 328.701 77.0803 330.26 80.4095Z" fill="white"/>
</mask>
<g mask="url(#mask2_463_12939)">
<path d="M290.228 60.243C287.164 60.0811 284.3 60.2336 281.672 60.5775L290.883 85.2692C294.603 85.4749 305.445 85.8353 305.893 85.8885L296.48 60.9309C293.767 60.4428 291.539 60.3116 290.228 60.243Z" fill="#E3ECFF"/>
<path d="M299.131 60.7133L308.109 85.255C309.454 85.4712 315.142 85.5268 316.233 85.6792L305.051 60.5136C303.713 60.2713 300.456 60.7145 299.131 60.7133Z" fill="#E3ECFF"/>
</g>
<path d="M268 84.5067C266.901 84.5067 265.872 84.0163 265.251 83.1784C264.65 82.3688 264.527 81.3808 264.91 80.4673L269.09 70.5128C270.052 68.2236 271.759 66.5667 273.772 65.9628C279.585 64.222 287.299 63.2801 296.701 63.1643C306.291 63.0473 314.592 64.04 321.381 66.1188C323.254 66.692 324.886 68.2142 325.859 70.293L330.536 80.2806C330.966 81.1988 330.872 82.2057 330.279 83.0425C329.595 84.0104 328.373 84.5339 327.119 84.4051C317.532 83.4478 307.782 82.9633 298.137 82.9633H297.734C287.962 82.9775 278.085 83.4904 268.379 84.4866C268.251 84.5008 268.125 84.5067 268 84.5067ZM298.225 63.7599C297.722 63.7599 297.218 63.7623 296.708 63.7694C287.495 63.884 279.623 64.8425 273.944 66.5431C272.105 67.0938 270.539 68.6255 269.648 70.7468L265.468 80.7013C265.169 81.4127 265.267 82.1845 265.736 82.8179C266.304 83.5814 267.298 83.9867 268.316 83.8851C278.043 82.8865 287.94 82.3724 297.734 82.3582C307.53 82.3523 317.437 82.8309 327.179 83.8036C328.226 83.9052 329.225 83.4833 329.785 82.6938C330.248 82.0391 330.322 81.2544 329.986 80.5394L325.31 70.5518C324.409 68.6278 322.913 67.2238 321.203 66.6991C314.833 64.7467 307.108 63.7599 298.225 63.7599Z" fill="#4F4F4F"/>
<path d="M287.127 98.8577H309.574C311.006 98.8577 312.17 100.021 312.17 101.454V104.158C312.17 106.118 310.579 107.708 308.62 107.708H288.081C286.121 107.708 284.531 106.118 284.531 104.158V101.454C284.531 100.022 285.695 98.8588 287.127 98.8577Z" fill="white"/>
<path d="M288.002 99.7405H308.776C310.208 99.7405 311.372 100.903 311.372 102.337V103.33C311.372 105.289 309.781 106.88 307.822 106.88H288.955C286.996 106.88 285.405 105.289 285.405 103.33V102.337C285.405 100.903 286.569 99.7405 288.002 99.7405Z" fill="white"/>
<path d="M307.822 107.182H288.955C286.831 107.182 285.102 105.453 285.102 103.328V102.336C285.102 100.737 286.404 99.4368 288.002 99.4368H308.776C310.375 99.4368 311.675 100.738 311.675 102.336V103.328C311.675 105.453 309.947 107.182 307.822 107.182ZM288.002 100.044C286.737 100.044 285.709 101.072 285.709 102.336V103.328C285.709 105.119 287.165 106.575 288.955 106.575H307.822C309.612 106.575 311.068 105.119 311.068 103.328V102.336C311.068 101.072 310.04 100.044 308.776 100.044H288.002Z" fill="#4F4F4F"/>
<path d="M257.687 96.1631C257.9 95.6513 258.327 95.3051 258.812 95.2153C260.561 94.8903 268.562 95.1857 270.42 95.714C271.273 95.9563 272.548 96.13 273.913 96.9844C274.793 97.5352 275.823 98.1804 276.315 99.5005C276.805 100.818 276.523 102.17 276.211 102.866C276.109 103.093 275.977 103.315 275.977 103.315C275.558 104.026 275.066 104.442 274.768 104.656C274.347 105.002 273.741 105.416 272.955 105.704C272.912 105.719 272.87 105.735 272.828 105.749C271.577 106.177 270.24 106.126 268.999 105.654C268.12 105.32 267.163 104.898 266.156 104.364C264.875 103.684 263.766 102.957 262.833 102.266C262.074 101.712 261.281 101.092 260.465 100.402C259.585 99.6554 257.503 97.5931 257.545 96.7894C257.558 96.5696 257.607 96.3581 257.687 96.1631Z" fill="#4F4F4F"/>
<path d="M259.428 96.6263C259.609 96.1949 259.972 95.903 260.383 95.8274C261.868 95.5532 268.663 95.8025 270.24 96.2469C270.965 96.4514 272.047 96.5979 273.207 97.3188C273.954 97.7833 274.828 98.3269 275.245 99.439C275.663 100.55 275.421 101.689 275.157 102.277C275.07 102.468 274.958 102.655 274.958 102.655C274.602 103.254 274.184 103.604 273.932 103.785C273.575 104.076 273.06 104.425 272.392 104.669C272.357 104.682 272.32 104.695 272.285 104.706C271.221 105.067 270.087 105.024 269.034 104.627C268.287 104.345 267.474 103.99 266.619 103.54C265.531 102.967 264.59 102.355 263.797 101.772C263.152 101.304 262.479 100.783 261.787 100.2C261.039 99.5702 259.271 97.8317 259.306 97.1557C259.317 96.969 259.359 96.7905 259.428 96.6263Z" fill="white"/>
<path d="M339.086 96.3083C338.873 95.7966 338.445 95.4503 337.961 95.3605C336.212 95.0355 328.211 95.331 326.353 95.8592C325.5 96.1015 324.225 96.2752 322.86 97.1297C321.98 97.6804 320.95 98.3257 320.458 99.6458C319.968 100.964 320.25 102.316 320.562 103.012C320.664 103.239 320.796 103.461 320.796 103.461C321.214 104.171 321.707 104.587 322.005 104.801C322.426 105.147 323.032 105.561 323.818 105.849C323.861 105.865 323.903 105.88 323.944 105.894C325.196 106.322 326.533 106.271 327.774 105.8C328.653 105.465 329.61 105.043 330.617 104.509C331.898 103.829 333.007 103.103 333.94 102.411C334.699 101.857 335.492 101.238 336.307 100.548C337.188 99.8006 339.27 97.7383 339.228 96.9347C339.216 96.7149 339.166 96.5033 339.086 96.3083Z" fill="#4F4F4F"/>
<path d="M337.346 96.7718C337.165 96.3404 336.802 96.0485 336.391 95.9729C334.906 95.6987 328.111 95.948 326.534 96.3924C325.809 96.5969 324.727 96.7434 323.567 97.4643C322.82 97.9288 321.946 98.4724 321.529 99.5845C321.111 100.695 321.352 101.835 321.617 102.422C321.703 102.614 321.816 102.8 321.816 102.8C322.171 103.399 322.59 103.749 322.842 103.93C323.199 104.222 323.714 104.571 324.382 104.814C324.417 104.827 324.454 104.84 324.489 104.852C325.553 105.212 326.687 105.17 327.74 104.773C328.487 104.49 329.299 104.136 330.155 103.685C331.243 103.112 332.184 102.5 332.977 101.917C333.622 101.449 334.295 100.928 334.987 100.346C335.735 99.7157 337.503 97.9772 337.468 97.3012C337.456 97.1133 337.415 96.9349 337.346 96.7718Z" fill="white"/>
<path d="M318.771 122.086C318.771 118.434 315.584 115.474 311.651 115.474H284.106C280.174 115.474 276.986 118.434 276.986 122.086V122.435H287.357C287.356 122.416 287.354 122.396 287.354 122.377V122.028C287.354 121.645 287.691 121.332 288.103 121.332H289.103C289.515 121.332 289.852 121.645 289.852 122.028V122.377C289.852 122.397 289.851 122.416 289.849 122.435H306.341V122.261C306.341 121.878 306.678 121.565 307.09 121.565H308.09C308.503 121.565 308.839 121.878 308.839 122.261V122.435H318.77L318.771 122.086Z" fill="#636363"/>
<path d="M285.103 116.461H286.481V121.332H281.235V120.329C281.234 118.194 282.967 116.461 285.103 116.461Z" fill="#4F4F4F"/>
<path d="M314.773 121.39H309.527V116.519H310.905C313.041 116.519 314.775 118.252 314.775 120.388V121.39H314.773Z" fill="#4F4F4F"/>
<path d="M290.552 116.65H306.08C306.922 116.65 307.603 117.332 307.603 118.173V119.794C307.603 120.635 306.922 121.317 306.08 121.317H290.552C289.711 121.317 289.029 120.635 289.029 119.794V118.173C289.029 117.332 289.711 116.65 290.552 116.65Z" fill="white"/>
<path d="M306.08 121.622H290.552C289.545 121.622 288.725 120.803 288.725 119.795V118.175C288.725 117.166 289.544 116.347 290.552 116.347H306.08C307.088 116.347 307.907 117.166 307.907 118.175V119.795C307.907 120.802 307.088 121.622 306.08 121.622ZM290.552 116.954C289.88 116.954 289.333 117.501 289.333 118.173V119.794C289.333 120.466 289.88 121.013 290.552 121.013H306.08C306.753 121.013 307.3 120.466 307.3 119.794V118.173C307.3 117.501 306.753 116.954 306.08 116.954H290.552Z" fill="#4F4F4F"/>
</g>
<path d="M121.293 110.645H144.659V141.938C144.659 145.361 141.88 148.141 138.457 148.141H127.496C124.073 148.141 121.293 145.361 121.293 141.938V110.645Z" fill="#636363"/>
<path d="M241.949 110.645H265.314V141.938C265.314 145.361 262.535 148.141 259.112 148.141H248.151C244.728 148.141 241.949 145.361 241.949 141.938V110.645Z" fill="#636363"/>
<path d="M157.012 24.0283H159.607C160.434 24.0283 161.104 24.6984 161.104 25.5257V29.8511C161.104 30.6784 160.434 31.3485 159.607 31.3485H157.012C156.184 31.3485 155.514 30.6784 155.514 29.8511V25.5257C155.514 24.6984 156.184 24.0283 157.012 24.0283Z" fill="white"/>
<path d="M159.607 31.7067H157.012C155.988 31.7067 155.156 30.8735 155.156 29.8501V25.5246C155.156 24.5012 155.988 23.668 157.012 23.668H159.607C160.63 23.668 161.462 24.5012 161.462 25.5246V29.8501C161.462 30.8747 160.63 31.7067 159.607 31.7067ZM157.011 24.3877C156.383 24.3877 155.872 24.8982 155.872 25.5258V29.8512C155.872 30.4788 156.383 30.9893 157.011 30.9893H159.606C160.233 30.9893 160.744 30.4788 160.744 29.8512V25.5258C160.744 24.8982 160.233 24.3877 159.606 24.3877H157.011Z" fill="#4F4F4F"/>
<path d="M221.294 24.2778H223.89C224.717 24.2778 225.387 24.9479 225.387 25.7752V30.1006C225.387 30.9279 224.717 31.598 223.89 31.598H221.294C220.467 31.598 219.797 30.9279 219.797 30.1006V25.7752C219.797 24.9479 220.467 24.2778 221.294 24.2778Z" fill="white"/>
<path d="M223.889 31.956H221.294C220.27 31.956 219.438 31.1228 219.438 30.0993V25.7739C219.438 24.7504 220.27 23.9172 221.294 23.9172H223.889C224.913 23.9172 225.745 24.7504 225.745 25.7739V30.0993C225.745 31.124 224.913 31.956 223.889 31.956ZM221.294 24.637C220.666 24.637 220.156 25.1475 220.156 25.7751V30.1005C220.156 30.7281 220.666 31.2386 221.294 31.2386H223.889C224.517 31.2386 225.027 30.7281 225.027 30.1005V25.7751C225.027 25.1475 224.517 24.637 223.889 24.637H221.294Z" fill="#4F4F4F"/>
<path d="M121.361 62.5757H130.267C132.378 62.5757 134.091 64.2893 134.091 66.4V73.3101H121.361C118.81 73.3101 116.74 71.2396 116.74 68.6892V67.1966C116.74 64.6462 118.81 62.5757 121.361 62.5757Z" fill="white"/>
<path d="M134.091 73.6695H121.362C118.617 73.6695 116.382 71.4347 116.382 68.6894V67.1967C116.382 64.4502 118.617 62.2166 121.362 62.2166H130.267C132.574 62.2166 134.451 64.0933 134.451 66.4002V73.3103C134.451 73.5076 134.29 73.6695 134.091 73.6695ZM121.361 62.9339C119.011 62.9339 117.099 64.8461 117.099 67.1955V68.6882C117.099 71.0388 119.011 72.951 121.361 72.951H133.732V66.4002C133.732 64.4892 132.178 62.9339 130.266 62.9339H121.361Z" fill="#4F4F4F"/>
<path d="M262.035 71.9122H249.304V65.0021C249.304 62.8914 251.018 61.1777 253.129 61.1777H262.035C264.585 61.1777 266.656 63.2483 266.656 65.7986V67.2913C266.656 69.8416 264.585 71.9122 262.035 71.9122Z" fill="white"/>
<path d="M262.035 72.2701H249.306C249.107 72.2701 248.946 72.1094 248.946 71.9109V65.0008C248.946 62.6939 250.823 60.8171 253.13 60.8171H262.035C264.78 60.8171 267.015 63.0508 267.015 65.7973V67.29C267.014 70.0365 264.78 72.2701 262.035 72.2701ZM249.664 71.5528H262.035C264.384 71.5528 266.297 69.6406 266.297 67.2911V65.7985C266.297 63.4479 264.384 61.5369 262.035 61.5369H253.13C251.219 61.5369 249.664 63.091 249.664 65.002V71.5528Z" fill="#4F4F4F"/>
<path d="M256.661 129.877H132.721C126.172 129.877 120.862 124.575 120.862 118.035V91.8635C120.862 89.8816 121.154 87.967 121.699 86.1612C124.15 78.0291 128.095 70.8933 137.037 70.8933C153.946 69.0497 172.851 67.8395 193.444 67.8738C213.827 67.908 232.547 69.1548 249.308 71.0209C252.408 71.0363 254.543 71.8695 255.738 72.5313C260.256 75.0356 262.381 80.3668 264.482 86.3562C265.255 88.5591 265.676 90.9287 265.676 93.3951V120.876C265.527 121.798 264.938 124.703 262.369 127.099C260.125 129.195 257.63 129.723 256.661 129.877Z" fill="white"/>
<path d="M256.661 130.237H132.723C125.985 130.237 120.503 124.763 120.503 118.036V91.8636C120.503 89.8888 120.789 87.9353 121.355 86.0586C123.534 78.8306 127.287 70.5354 137.039 70.5354C155.391 68.531 174.092 67.5146 192.599 67.5146C192.881 67.5146 193.165 67.5146 193.448 67.5146C212.047 67.5454 230.855 68.6043 249.351 70.6642C252.477 70.6772 254.649 71.5163 255.916 72.2171C260.498 74.7568 262.661 80.0691 264.824 86.237C265.63 88.5345 266.038 90.943 266.038 93.3941V120.876C265.804 122.358 265.053 125.087 262.617 127.361C260.447 129.386 257.991 130.028 256.719 130.231C256.699 130.236 256.68 130.237 256.661 130.237ZM192.597 68.232C174.115 68.232 155.442 69.246 137.077 71.2504C127.757 71.2527 124.149 79.2761 122.042 86.2654C121.496 88.0759 121.22 89.9597 121.22 91.8636V118.036C121.22 124.367 126.38 129.52 132.722 129.52H256.632C257.83 129.325 260.11 128.719 262.125 126.838C264.405 124.71 265.107 122.154 265.322 120.819L265.317 93.3953C265.317 91.0246 264.922 88.6964 264.145 86.4757C262.03 80.4485 259.926 75.2627 255.563 72.8458C254.371 72.1852 252.318 71.3946 249.306 71.3804C230.798 69.3216 212.016 68.2639 193.442 68.2332C193.162 68.232 192.879 68.232 192.597 68.232Z" fill="#4F4F4F"/>
<path d="M139.677 74.2817C137.336 77.0967 135.735 80.2676 135.881 82.7387C136.038 85.4392 137.727 87.8395 139.764 89.6205C154.262 102.288 175.742 99.5087 193.544 99.4957C208.071 99.4851 223.715 101.215 237.544 95.8959C243.219 93.7131 250.847 89.2056 250.369 82.162C250.107 78.2963 247.606 74.8678 244.847 72.3187C242.782 70.4124 240.738 68.7992 238.801 67.4377H150.587C147.204 67.4366 142.786 70.5436 139.677 74.2817Z" fill="white"/>
<path d="M176.588 100.118C163.38 100.118 149.684 98.7643 139.528 89.8901C137.09 87.7581 135.667 85.2266 135.524 82.7602C135.383 80.3575 136.797 77.1832 139.401 74.0513C142.288 70.5803 146.867 67.0786 150.587 67.0786H238.8C238.874 67.0786 238.946 67.1023 239.007 67.1436C241.136 68.6398 243.181 70.292 245.091 72.0541C247.502 74.2794 250.437 77.8355 250.729 82.1362C251.269 90.1182 241.78 94.6516 237.674 96.2293C226.494 100.53 214.145 100.251 202.204 99.9828C199.348 99.9178 196.397 99.841 193.545 99.854C190.892 99.8563 188.21 99.9178 185.372 99.984C182.497 100.05 179.556 100.118 176.588 100.118ZM139.953 74.5111C137.5 77.4597 136.112 80.5277 136.239 82.7188C136.371 84.9914 137.707 87.3456 140 89.35C152.228 100.035 169.819 99.62 185.353 99.2666C188.196 99.2004 190.882 99.139 193.544 99.1366H193.659C196.482 99.1366 199.397 99.2028 202.22 99.2654C214.09 99.5349 226.368 99.8091 237.414 95.5604C241.372 94.0394 250.519 89.6903 250.011 82.1858C249.736 78.1215 246.918 74.7203 244.603 72.5823C242.747 70.8663 240.755 69.2567 238.686 67.7972H150.587C147.568 67.796 143.294 70.4953 139.953 74.5111Z" fill="#4F4F4F"/>
<path d="M255.361 72.2973C236.966 70.183 216.336 68.7649 193.819 68.7471C170.336 68.7294 148.884 70.2362 129.854 72.4805C134.045 62.2247 138.236 51.9689 142.427 41.713C145.97 33.0432 153.036 27.6139 160.733 27.6459C169.873 26.6886 179.695 26.0989 190.122 26.0752C201.96 26.048 213.032 26.7536 223.235 27.9094C225.098 27.8964 229.112 28.2344 233.433 31.3969C236.484 33.6294 239.083 36.8581 240.917 40.8503L255.361 72.2973Z" fill="white"/>
<path d="M129.854 72.8399C129.743 72.8399 129.637 72.7879 129.569 72.6981C129.493 72.5976 129.475 72.4629 129.522 72.3459L142.096 41.5785C145.7 32.7574 152.81 27.2879 160.664 27.2879H160.736C170.446 26.268 180.346 25.7397 190.123 25.7173C201.156 25.6676 212.296 26.3094 223.277 27.5538C225.723 27.555 229.589 28.1376 233.646 31.1075C236.791 33.4097 239.419 36.7271 241.245 40.7004L255.69 72.1474C255.743 72.2656 255.73 72.4026 255.654 72.5078C255.578 72.613 255.439 72.6662 255.323 72.6544C234.983 70.3155 214.29 69.1231 193.821 69.1065H193.402C172.258 69.1065 150.897 70.3616 129.899 72.8376C129.881 72.8387 129.868 72.8399 129.854 72.8399ZM160.706 28.0029C153.108 28.0029 146.252 33.301 142.759 41.8491L130.416 72.054C151.245 69.6206 172.432 68.388 193.398 68.388H193.818C214.103 68.4045 234.606 69.5746 254.768 71.8685L240.589 41.0005C238.816 37.1372 236.268 33.9167 233.22 31.6866C229.373 28.8704 225.738 28.2676 223.335 28.2676C223.302 28.2676 223.269 28.2676 223.237 28.2676C212.456 27.0492 201.549 26.4335 190.771 26.4335C190.554 26.4335 190.34 26.4335 190.123 26.4335C180.369 26.4547 170.493 26.983 160.769 28.0017L160.706 28.0029Z" fill="#4F4F4F"/>
<path d="M248.143 58.9747C249.662 62.22 246.71 65.7217 242.789 65.3305C227.585 63.8119 210.632 62.8215 192.197 62.8475C173.774 62.8735 156.837 63.9112 141.651 65.47C137.813 65.8647 134.864 62.5013 136.22 59.2749C138.616 53.5679 141.013 47.8597 143.41 42.1527C145.004 38.3543 147.819 35.6161 151.13 34.6257C161.534 31.5104 175.285 30.0213 190.425 29.8334C207.509 29.6219 221.462 31.4466 232.715 34.8928C235.813 35.8418 238.475 38.3295 240.098 41.7958C242.781 47.5229 245.461 53.2488 248.143 58.9747Z" fill="#E5EFFA"/>
<path d="M141.053 65.8187C139.227 65.8187 137.52 65.0068 136.489 63.617C135.501 62.2839 135.297 60.6566 135.928 59.1545L143.118 42.0323C144.745 38.1536 147.632 35.3432 151.038 34.3233C161.018 31.3356 174.268 29.7189 190.421 29.518C206.889 29.3195 221.15 31.0201 232.806 34.5904C235.972 35.5595 238.734 38.137 240.384 41.6612L248.427 58.8401C249.136 60.3505 248.982 62.0086 248.007 63.3866C246.869 64.9903 244.844 65.8495 242.758 65.6462C226.272 63.9999 209.502 63.1656 192.91 63.1656C192.672 63.1656 192.436 63.1656 192.196 63.1656C175.384 63.1892 158.391 64.0708 141.684 65.7868C141.474 65.8081 141.262 65.8187 141.053 65.8187ZM193.045 30.1349C192.18 30.1349 191.308 30.1408 190.43 30.1515C174.563 30.3476 161.005 32.001 151.222 34.9296C147.996 35.8939 145.257 38.5731 143.703 42.2757L136.513 59.3979C135.97 60.6896 136.146 62.0901 136.998 63.2388C138.014 64.6097 139.78 65.3436 141.621 65.1557C158.347 63.4386 175.364 62.5557 192.198 62.5309H192.911C209.525 62.5309 226.313 63.3665 242.821 65.0151C244.711 65.2101 246.487 64.4372 247.49 63.0202C248.33 61.8336 248.464 60.4072 247.857 59.1084L239.813 41.9295C238.238 38.566 235.616 36.1126 232.623 35.1955C221.649 31.8356 208.344 30.1349 193.045 30.1349Z" fill="#4F4F4F"/>
<path d="M241.399 112.95C238.245 112.95 235.257 114.407 233.249 116.924L232.253 118.173H153.519L152.308 116.726C150.301 114.328 147.385 112.95 144.32 112.95H120.862V119.759C120.862 126.152 125.87 131.333 132.048 131.333H254.491C260.669 131.333 265.677 126.152 265.677 119.759V112.95H241.399Z" fill="#005BAC"/>
<path d="M173.954 90.7078H212.562C215.026 90.7078 217.028 92.7086 217.028 95.1739V99.8243C217.028 103.195 214.292 105.93 210.921 105.93H175.594C172.224 105.93 169.488 103.194 169.488 99.8231V95.1727C169.488 92.7086 171.49 90.7066 173.954 90.7078Z" fill="white"/>
<path d="M175.458 92.2241H211.189C213.653 92.2241 215.655 94.2249 215.655 96.6902V98.3968C215.655 101.767 212.92 104.503 209.549 104.503H177.099C173.728 104.503 170.992 101.767 170.992 98.3968V96.6902C170.992 94.2249 172.993 92.2241 175.458 92.2241Z" fill="white"/>
<path d="M209.548 104.861H177.098C173.533 104.861 170.633 101.961 170.633 98.3955V96.6889C170.633 94.0286 172.797 91.8647 175.457 91.8647H211.187C213.848 91.8647 216.013 94.0286 216.013 96.6889V98.3955C216.014 101.961 213.114 104.861 209.548 104.861ZM175.459 92.5821C173.194 92.5821 171.352 94.4246 171.352 96.6889V98.3955C171.352 101.565 173.931 104.143 177.098 104.143H209.548C212.718 104.143 215.295 101.564 215.295 98.3955V96.6889C215.295 94.4246 213.452 92.5821 211.187 92.5821H175.459Z" fill="#4F4F4F"/>
<path d="M228.382 130.66C228.382 124.38 222.899 119.288 216.134 119.288H168.759C161.995 119.288 156.512 124.379 156.512 130.66V131.259H174.35C174.347 131.226 174.344 131.193 174.344 131.16V130.561C174.344 129.903 174.924 129.364 175.634 129.364H177.352C178.061 129.364 178.641 129.903 178.641 130.561V131.16C178.641 131.194 178.639 131.228 178.635 131.259H207.001V130.96C207.001 130.302 207.582 129.763 208.291 129.763H210.009C210.718 129.763 211.298 130.302 211.298 130.96V131.259H228.382V130.66Z" fill="#005BAC"/>
<path d="M179.844 121.309H206.552C207.999 121.309 209.172 122.482 209.172 123.929V126.715C209.172 128.162 207.999 129.336 206.552 129.336H179.844C178.398 129.336 177.224 128.162 177.224 126.715V123.929C177.224 122.482 178.398 121.309 179.844 121.309Z" fill="white"/>
<path d="M206.552 129.696H179.844C178.2 129.696 176.865 128.359 176.865 126.717V123.93C176.865 122.287 178.201 120.95 179.844 120.95H206.552C208.196 120.95 209.531 122.287 209.531 123.93V126.717C209.533 128.359 208.196 129.696 206.552 129.696ZM179.845 121.669C178.597 121.669 177.583 122.683 177.583 123.93V126.717C177.583 127.963 178.597 128.977 179.845 128.977H206.553C207.801 128.977 208.815 127.963 208.815 126.717V123.93C208.815 122.683 207.801 121.669 206.553 121.669H179.845Z" fill="#4F4F4F"/>
<path d="M145.296 98.6485C148.911 95.2118 149.057 89.4965 145.62 85.8813C142.183 82.2661 136.468 82.1208 132.853 85.5575C129.238 88.9942 129.092 94.7095 132.529 98.3247C135.964 101.94 141.681 102.085 145.296 98.6485Z" fill="white"/>
<path d="M132.898 90.7078C132.6 92.7452 133.243 94.9446 134.825 96.6086C135.357 97.1676 135.954 97.6238 136.59 97.9759" fill="white"/>
<path d="M136.59 98.4356C136.514 98.4356 136.437 98.4167 136.367 98.3777C135.675 97.9948 135.045 97.5055 134.492 96.9253C132.881 95.2305 132.115 92.8811 132.443 90.6415C132.479 90.3898 132.704 90.2137 132.965 90.2527C133.217 90.2894 133.389 90.5234 133.354 90.7739C133.067 92.7369 133.741 94.7992 135.158 96.2906C135.646 96.8047 136.203 97.2361 136.812 97.5729C137.034 97.6958 137.115 97.9759 136.991 98.1981C136.909 98.3505 136.751 98.4356 136.59 98.4356Z" fill="#4F4F4F"/>
<path d="M134.801 87.0039C134.335 87.4471 133.951 87.947 133.65 88.4836L134.801 87.0039Z" fill="white"/>
<path d="M133.651 88.9434C133.575 88.9434 133.497 88.9245 133.426 88.8843C133.204 88.7602 133.125 88.4801 133.25 88.2579C133.578 87.6717 133.996 87.1375 134.486 86.6695C134.669 86.4958 134.96 86.5005 135.137 86.6861C135.312 86.8705 135.305 87.1612 135.121 87.3373C134.696 87.7415 134.337 88.2024 134.054 88.7082C133.967 88.8583 133.811 88.9434 133.651 88.9434Z" fill="#4F4F4F"/>
<path d="M238.428 98.6485C234.813 95.2118 234.667 89.4965 238.104 85.8813C241.541 82.2661 247.256 82.1208 250.871 85.5575C254.486 88.9942 254.632 94.7095 251.195 98.3247C247.76 101.94 242.043 102.085 238.428 98.6485Z" fill="white"/>
<path d="M250.827 90.7078C251.125 92.7452 250.482 94.9446 248.899 96.6086C248.367 97.1676 247.771 97.6238 247.135 97.9759" fill="white"/>
<path d="M247.134 98.4356C246.973 98.4356 246.815 98.3505 246.731 98.1981C246.607 97.9759 246.689 97.6958 246.911 97.5729C247.519 97.2372 248.075 96.8059 248.564 96.2906C249.98 94.7991 250.656 92.7369 250.369 90.7739C250.334 90.5221 250.507 90.2881 250.759 90.2527C250.987 90.2172 251.244 90.3886 251.28 90.6415C251.605 92.8822 250.841 95.2317 249.231 96.9252C248.676 97.5079 248.044 97.996 247.355 98.3777C247.287 98.4179 247.211 98.4356 247.134 98.4356Z" fill="#4F4F4F"/>
<path d="M248.921 87.0039C249.388 87.4471 249.772 87.947 250.072 88.4836L248.921 87.0039Z" fill="white"/>
<path d="M250.074 88.9434C249.913 88.9434 249.756 88.8583 249.672 88.7082C249.387 88.2012 249.028 87.7391 248.606 87.3373C248.423 87.1624 248.415 86.8705 248.59 86.6861C248.766 86.5018 249.056 86.4947 249.241 86.6696C249.73 87.1352 250.146 87.6694 250.476 88.2579C250.6 88.4801 250.521 88.7602 250.3 88.8843C250.228 88.9245 250.15 88.9434 250.074 88.9434Z" fill="#4F4F4F"/>
</g>
<path d="M244.648 101.589C242.299 101.589 239.944 100.725 238.111 98.9816C236.274 97.2349 235.227 94.8772 235.163 92.3434C235.098 89.8084 236.026 87.401 237.771 85.5645C239.517 83.7267 241.876 82.6796 244.409 82.6146C246.943 82.5567 249.353 83.4774 251.19 85.2229C254.982 88.8286 255.136 94.8476 251.53 98.6413C249.667 100.601 247.16 101.589 244.648 101.589ZM244.656 83.5317C244.581 83.5317 244.507 83.5329 244.433 83.5341C242.145 83.592 240.017 84.5386 238.439 86.1967C236.862 87.856 236.026 90.0305 236.084 92.3197C236.141 94.6089 237.088 96.7374 238.747 98.3139C242.172 101.57 247.61 101.433 250.864 98.0055C254.12 94.5817 253.982 89.1454 250.556 85.8894C248.949 84.3649 246.862 83.5317 244.656 83.5317Z" fill="#4F4F4F"/>
<path d="M139.081 101.594C138.999 101.594 138.915 101.592 138.834 101.59C136.299 101.526 133.941 100.479 132.195 98.6414C130.45 96.8036 129.522 94.3963 129.587 91.8625C129.651 89.3275 130.698 86.9697 132.536 85.223C134.374 83.4763 136.794 82.5556 139.315 82.6147C141.85 82.6797 144.207 83.7268 145.953 85.5646C147.701 87.4011 148.627 89.8096 148.562 92.3435C148.497 94.8773 147.452 97.2362 145.614 98.9817C143.835 100.672 141.524 101.594 139.081 101.594ZM139.068 83.5318C136.862 83.5318 134.774 84.365 133.17 85.8907C131.511 87.4685 130.565 89.5969 130.507 91.8861C130.449 94.1753 131.285 96.3486 132.862 98.0079C134.439 99.6672 136.568 100.614 138.856 100.672C141.147 100.758 143.319 99.8929 144.979 98.3164C146.638 96.7386 147.584 94.6102 147.643 92.3222C147.701 90.033 146.864 87.8596 145.286 86.2004C143.709 84.5411 141.58 83.5945 139.292 83.5366C139.217 83.533 139.142 83.5318 139.068 83.5318Z" fill="#4F4F4F"/>
</g>
<defs>
<clipPath id="clip0_463_12939">
<rect width="390" height="177.273" fill="white" transform="translate(0.408691 0.95459)"/>
</clipPath>
</defs>
</svg>
